<svg width="23" height="23" viewBox="0 0 23 23" fill="none" xmlns="http://www.w3.org/2000/svg">
<path d="M11.5398 23.0001V17.5001C11.5323 16.7492 11.2307 16.0312 10.6998 15.5001L8.10984 12.8701C7.74872 12.5141 7.26197 12.3145 6.75484 12.3145C6.24772 12.3145 5.76097 12.5141 5.39984 12.8701C5.04721 13.2358 4.847 13.7221 4.83984 14.2301C4.84316 14.9476 5.13085 15.6344 5.63984 16.1401L7.70984 18.2201" stroke="#211E1A" stroke-width="1.5" stroke-miterlimit="10"/>
<path d="M4.84003 22.9999V21.9999L1.84003 18.9999C1.30916 18.4688 1.0076 17.7508 1.00003 16.9999V9.60994C0.998665 9.35705 1.0478 9.10642 1.14456 8.87277C1.24132 8.63911 1.38376 8.42712 1.56351 8.24923C1.74327 8.07133 1.95673 7.93111 2.19138 7.83679C2.42604 7.74247 2.67716 7.69595 2.93003 7.69994C3.18122 7.69862 3.43019 7.74712 3.66252 7.84264C3.89485 7.93815 4.10593 8.07879 4.28356 8.25642C4.46118 8.43404 4.60182 8.64512 4.69734 8.87745C4.79285 9.10978 4.84135 9.35875 4.84003 9.60994V15.3499L7.71003 18.2199" stroke="#211E1A" stroke-width="1.5" stroke-miterlimit="10"/>
<path d="M11.54 23.0001V17.5001C11.5476 16.7492 11.8492 16.0312 12.38 15.5001L14.97 12.9101C15.3312 12.5541 15.8179 12.3545 16.325 12.3545C16.8322 12.3545 17.3189 12.5541 17.68 12.9101C18.0327 13.2759 18.2329 13.7621 18.24 14.2701C18.2367 14.9876 17.949 15.6745 17.44 16.1801L15.37 18.2601" stroke="#211E1A" stroke-width="1.5" stroke-miterlimit="10"/>
<path d="M18.2401 22.9999V21.9999L21.2401 18.9999C21.771 18.4688 22.0725 17.7508 22.0801 16.9999V9.60994C22.0815 9.35705 22.0323 9.10642 21.9356 8.87277C21.8388 8.63911 21.6964 8.42712 21.5166 8.24923C21.3369 8.07133 21.1234 7.93111 20.8888 7.83679C20.6541 7.74247 20.403 7.69595 20.1501 7.69994C19.8989 7.69862 19.65 7.74712 19.4176 7.84264C19.1853 7.93815 18.9742 8.07879 18.7966 8.25642C18.619 8.43404 18.4783 8.64512 18.3828 8.87745C18.2873 9.10978 18.2388 9.35875 18.2401 9.60994V15.3499L15.3701 18.2199" stroke="#211E1A" stroke-width="1.5" stroke-miterlimit="10"/>
<path d="M17.2798 3.87L11.5398 10.56L5.7998 3.87L7.7098 1H15.3698L17.2798 3.87Z" stroke="#211E1A" stroke-width="1.5" stroke-miterlimit="10"/>
</svg>
