<svg width="11" height="17" viewBox="0 0 11 17" fill="none" xmlns="http://www.w3.org/2000/svg">
<path d="M0 13H6.875C7.60435 13 8.30382 12.7629 8.81954 12.341C9.33527 11.919 9.625 11.3467 9.625 10.75C9.625 10.1533 9.33527 9.58097 8.81954 9.15901C8.30382 8.73705 7.60435 8.5 6.875 8.5H4.125C3.39565 8.5 2.69618 8.26295 2.18046 7.84099C1.66473 7.41903 1.375 6.84674 1.375 6.25C1.375 5.65326 1.66473 5.08097 2.18046 4.65901C2.69618 4.23705 3.39565 4 4.125 4H11" stroke="#A6A098" stroke-width="1.5" stroke-miterlimit="10"/>
<path d="M5 0V4" stroke="#A6A098" stroke-width="1.5" stroke-miterlimit="10"/>
<path d="M5 17V13" stroke="#A6A098" stroke-width="1.5" stroke-miterlimit="10"/>
</svg>
