<svg width="23" height="23" viewBox="0 0 23 23" fill="none" xmlns="http://www.w3.org/2000/svg">
<path d="M22.9 22H0" stroke="#A6A098" stroke-width="1.5" stroke-miterlimit="10"/>
<path d="M19.2 8.64999L21.79 6.04999L21.11 5.37999C20.8456 5.1112 20.5305 4.89772 20.1828 4.75199C19.8351 4.60627 19.4619 4.53122 19.085 4.53122C18.708 4.53122 18.3348 4.60627 17.9871 4.75199C17.6394 4.89772 17.3243 5.1112 17.06 5.37999C16.7936 5.64567 16.5822 5.96129 16.438 6.30877C16.2938 6.65626 16.2196 7.02878 16.2196 7.40499C16.2196 7.78121 16.2938 8.15373 16.438 8.50122C16.5822 8.8487 16.7936 9.16432 17.06 9.43" stroke="#A6A098" stroke-width="1.5" stroke-miterlimit="10"/>
<path d="M13.24 8.64999L10.66 6.04999L11.34 5.37999C11.8917 4.93321 12.5897 4.70754 13.2985 4.74686C14.0073 4.78618 14.6761 5.08768 15.1749 5.59274C15.6738 6.0978 15.9669 6.77032 15.9974 7.47953C16.028 8.18874 15.7936 8.88395 15.34 9.42999" stroke="#A6A098" stroke-width="1.5" stroke-miterlimit="10"/>
<path d="M16.22 11.5V22" stroke="#A6A098" stroke-width="1.5" stroke-miterlimit="10"/>
<path d="M3.80995 6.72C5.38949 6.72 6.66995 5.43953 6.66995 3.86C6.66995 2.28047 5.38949 1 3.80995 1C2.23042 1 0.949951 2.28047 0.949951 3.86C0.949951 5.43953 2.23042 6.72 3.80995 6.72Z" stroke="#A6A098" stroke-width="1.5" stroke-miterlimit="10"/>
<path d="M19.09 12.5H21.95V11.5C21.95 10.7415 21.6486 10.014 21.1123 9.47768C20.5759 8.94132 19.8485 8.64 19.09 8.64C18.7135 8.63869 18.3406 8.71169 17.9924 8.85483C17.6443 8.99797 17.3278 9.20843 17.0612 9.47413C16.7945 9.73984 16.583 10.0556 16.4386 10.4032C16.2943 10.7509 16.22 11.1236 16.22 11.5V12.5" stroke="#A6A098" stroke-width="1.5" stroke-miterlimit="10"/>
<path d="M13.36 12.5H10.5V11.5C10.5 10.7415 10.8013 10.014 11.3377 9.47769C11.874 8.94133 12.6015 8.64001 13.36 8.64001C14.1185 8.64001 14.846 8.94133 15.3823 9.47769C15.9187 10.014 16.22 10.7415 16.22 11.5V12.5" stroke="#A6A098" stroke-width="1.5" stroke-miterlimit="10"/>
</svg>
