<svg width="24" height="24" viewBox="0 0 24 24" fill="none" xmlns="http://www.w3.org/2000/svg">
<g clip-path="url(#clip0_1_556)">
<path d="M20 6V20H4V6" stroke="#8A8278" stroke-width="1.5" stroke-miterlimit="10"/>
<path d="M23 8L12 -1L1 8" stroke="#8A8278" stroke-width="1.5" stroke-miterlimit="10"/>
<path d="M12.5 9.50001L12 10L11.5 9.50001C11.3031 9.30287 11.0693 9.14648 10.8119 9.03977C10.5545 8.93307 10.2786 8.87814 10 8.87814C9.72139 8.87814 9.44549 8.93307 9.18811 9.03977C8.93073 9.14648 8.69691 9.30287 8.50001 9.50001C8.30287 9.69691 8.14648 9.93073 8.03977 10.1881C7.93307 10.4455 7.87814 10.7214 7.87814 11C7.87814 11.2786 7.93307 11.5545 8.03977 11.8119C8.14648 12.0693 8.30287 12.3031 8.50001 12.5L9.00001 13L12 16L15 13L15.5 12.5C15.6972 12.3031 15.8535 12.0693 15.9603 11.8119C16.067 11.5545 16.1219 11.2786 16.1219 11C16.1219 10.7214 16.067 10.4455 15.9603 10.1881C15.8535 9.93073 15.6972 9.69691 15.5 9.50001C15.3031 9.30287 15.0693 9.14648 14.8119 9.03977C14.5545 8.93307 14.2786 8.87814 14 8.87814C13.7214 8.87814 13.4455 8.93307 13.1881 9.03977C12.9307 9.14648 12.6969 9.30287 12.5 9.50001Z" stroke="#8A8278" stroke-width="1.5" stroke-miterlimit="10"/>
</g>
<defs>
<clipPath id="clip0_1_556">
<rect width="24" height="24" fill="white"/>
</clipPath>
</defs>
</svg>
