<svg width="24" height="24" viewBox="0 0 24 24" fill="none" xmlns="http://www.w3.org/2000/svg">
<g clip-path="url(#clip0_1_579)">
<path d="M8.475 22.8733C8.475 22.8733 1.005 16.3433 1.005 10.7433C0.968273 9.73996 1.13417 8.73955 1.49278 7.8018C1.85139 6.86405 2.39535 6.00822 3.09217 5.28543C3.78898 4.56264 4.62434 3.98773 5.54834 3.59506C6.47235 3.20238 7.46602 3 8.47 3C9.47398 3 10.4677 3.20238 11.3917 3.59506C12.3157 3.98773 13.151 4.56264 13.8478 5.28543C14.5446 6.00822 15.0886 6.86405 15.4472 7.8018C15.8058 8.73955 15.9717 9.73996 15.935 10.7433" stroke="#8A8278" stroke-width="1.5" stroke-miterlimit="10"/>
<path d="M19.675 17.2733V23.8133H10.335V17.2733" stroke="#8A8278" stroke-width="1.5" stroke-miterlimit="10"/>
<path d="M15.005 20.0733V23.8133" stroke="#8A8278" stroke-width="1.5" stroke-miterlimit="10"/>
<path d="M8.475 13.5433C10.0214 13.5433 11.275 12.2897 11.275 10.7433C11.275 9.19687 10.0214 7.94327 8.475 7.94327C6.92861 7.94327 5.675 9.19687 5.675 10.7433C5.675 12.2897 6.92861 13.5433 8.475 13.5433Z" stroke="#8A8278" stroke-width="1.5" stroke-miterlimit="10"/>
<path d="M8.005 19.6133L15.005 12.6133L22.005 19.6133" stroke="#8A8278" stroke-width="1.5" stroke-miterlimit="10"/>
</g>
<defs>
<clipPath id="clip0_1_579">
<rect width="24" height="24" fill="white"/>
</clipPath>
</defs>
</svg>
