<svg width="24" height="5" viewBox="0 0 24 5" fill="none" xmlns="http://www.w3.org/2000/svg">
<path d="M1 2.12109C1.31755 2.54536 1.72963 2.88978 2.20351 3.12701C2.6774 3.36425 3.20005 3.48776 3.73 3.48776C4.25995 3.48776 4.7826 3.36425 5.25649 3.12701C5.73037 2.88978 6.14245 2.54536 6.46 2.12109C6.77755 2.54536 7.18962 2.88978 7.66351 3.12701C8.13739 3.36425 8.66005 3.48776 9.19 3.48776C9.71995 3.48776 10.2426 3.36425 10.7165 3.12701C11.1904 2.88978 11.6024 2.54536 11.92 2.12109C12.2365 2.54527 12.6477 2.8897 13.1207 3.12696C13.5938 3.36423 14.1158 3.48778 14.645 3.48778C15.1742 3.48778 15.6962 3.36423 16.1693 3.12696C16.6423 2.8897 17.0535 2.54527 17.37 2.12109C17.6865 2.54527 18.0977 2.8897 18.5707 3.12696C19.0438 3.36423 19.5658 3.48778 20.095 3.48778C20.6242 3.48778 21.1462 3.36423 21.6193 3.12696C22.0923 2.8897 22.5035 2.54527 22.82 2.12109" stroke="black" stroke-width="1.5" stroke-miterlimit="10"/>
</svg>
