<svg width="10" height="12" viewBox="0 0 10 12" fill="none" xmlns="http://www.w3.org/2000/svg">
<path d="M9.16 6.71094C9.16 7.2139 9.06093 7.71194 8.86846 8.17661C8.67598 8.64129 8.39387 9.06351 8.03822 9.41916C7.68257 9.7748 7.26035 10.0569 6.79568 10.2494C6.331 10.4419 5.83296 10.5409 5.33 10.5409C4.82704 10.5409 4.329 10.4419 3.86432 10.2494C3.39965 10.0569 2.97743 9.7748 2.62178 9.41916C2.26613 9.06351 1.98402 8.64129 1.79154 8.17661C1.59907 7.71194 1.5 7.2139 1.5 6.71094C1.5 4.59094 3.21 0.960938 5.33 0.960938C7.45 0.960938 9.16 4.59094 9.16 6.71094Z" stroke="black" stroke-width="1.5" stroke-miterlimit="10"/>
</svg>
